<svg width="702" height="900" viewBox="0 0 702 900" fill="none" xmlns="http://www.w3.org/2000/svg">
<g opacity="0.5">
<path d="M117 225.217C93.8588 225.217 71.2374 232.079 51.9965 244.936C32.7556 257.793 17.7595 276.067 8.90453 297.447C0.0495826 318.827 -2.26643 342.353 2.24941 365.049C6.76525 387.745 17.9101 408.592 34.2745 424.954C50.639 441.316 71.4879 452.458 94.1848 456.971C116.882 461.483 140.407 459.164 161.786 450.306C183.164 441.448 201.436 426.449 214.29 407.206C227.144 387.964 234.003 365.341 234 342.2C234 326.836 230.973 311.623 225.093 297.429C219.213 283.235 210.595 270.338 199.73 259.475C188.866 248.611 175.968 239.995 161.773 234.117C147.578 228.239 132.364 225.215 117 225.217ZM117 399.647C105.638 399.647 94.5312 396.278 85.0841 389.966C75.637 383.653 68.2738 374.681 63.9258 364.184C59.5777 353.687 58.44 342.136 60.6566 330.993C62.8732 319.849 68.3445 309.613 76.3787 301.579C84.4128 293.545 94.6489 288.073 105.793 285.857C116.936 283.64 128.487 284.778 138.984 289.126C149.481 293.474 158.453 300.837 164.765 310.284C171.078 319.731 174.447 330.838 174.447 342.2C174.447 357.436 168.395 372.048 157.621 382.821C146.848 393.595 132.236 399.647 117 399.647Z" fill="#F2F2F2"/>
<path d="M587.119 372.739C604.21 372.739 618.065 358.885 618.065 341.794C618.065 324.703 604.21 310.848 587.119 310.848C570.028 310.848 556.173 324.703 556.173 341.794C556.173 358.885 570.028 372.739 587.119 372.739Z" fill="#F2F2F2"/>
<path d="M186.522 669.478C203.378 669.478 217.043 655.623 217.043 638.532C217.043 621.442 203.378 607.587 186.522 607.587C169.665 607.587 156 621.442 156 638.532C156 655.623 169.665 669.478 186.522 669.478Z" fill="#F2F2F2"/>
<path d="M656.641 303.217C673.732 303.217 687.587 289.363 687.587 272.272C687.587 255.181 673.732 241.326 656.641 241.326C639.55 241.326 625.696 255.181 625.696 272.272C625.696 289.363 639.55 303.217 656.641 303.217Z" fill="#F2F2F2"/>
<path d="M518.869 441.413C535.726 441.413 549.391 427.748 549.391 410.891C549.391 394.034 535.726 380.369 518.869 380.369C502.012 380.369 488.347 394.034 488.347 410.891C488.347 427.748 502.012 441.413 518.869 441.413Z" fill="#F2F2F2"/>
<path d="M528.586 571.546C528.586 586.506 522.65 600.853 512.083 611.432C501.516 622.01 487.183 627.953 472.239 627.953V686.426C487.426 686.611 502.498 683.776 516.582 678.086C530.665 672.396 543.481 663.964 554.285 653.279C565.089 642.594 573.668 629.868 579.522 615.839C585.377 601.811 588.391 586.758 588.391 571.554C588.391 556.351 585.377 541.298 579.522 527.27C573.668 513.241 565.089 500.515 554.285 489.83C543.481 479.145 530.665 470.713 516.582 465.023C502.498 459.333 487.426 456.498 472.239 456.683V515.156C487.181 515.156 501.51 521.097 512.077 531.671C522.643 542.246 528.582 556.589 528.586 571.546Z" fill="#F2F2F2"/>
<path d="M357.435 154.474C372.38 154.487 386.708 160.429 397.27 170.992C407.831 181.555 413.762 195.875 413.757 210.804H472.231C472.415 195.618 469.58 180.546 463.89 166.462C458.2 152.378 449.768 139.563 439.083 128.758C428.398 117.954 415.672 109.376 401.644 103.521C387.615 97.6668 372.562 94.6521 357.359 94.6521C342.155 94.6521 327.103 97.6668 313.074 103.521C299.045 109.376 286.32 117.954 275.634 128.758C264.949 139.563 256.517 152.378 250.827 166.462C245.137 180.546 242.302 195.618 242.487 210.804H300.96C300.96 203.4 302.422 196.068 305.261 189.228C308.1 182.388 312.261 176.175 317.507 170.943C322.752 165.711 328.978 161.563 335.829 158.738C342.681 155.912 350.023 154.463 357.435 154.474Z" fill="#F2F2F2"/>
<path d="M317.321 246.413C317.323 253.847 315.871 261.209 313.048 268.077C310.225 274.946 306.087 281.188 300.869 286.445C295.651 291.702 289.456 295.873 282.637 298.718C275.819 301.564 268.511 303.028 261.13 303.028V361.717C276.162 361.717 291.047 358.735 304.935 352.94C318.822 347.145 331.441 338.652 342.069 327.945C352.698 317.237 361.128 304.526 366.879 290.537C372.63 276.548 375.589 261.554 375.587 246.413H317.321Z" fill="#F2F2F2"/>
<path d="M393.202 322.717C393.202 330.098 391.737 337.406 388.892 344.224C386.047 351.043 381.876 357.238 376.619 362.456C371.361 367.674 365.12 371.812 358.251 374.635C351.383 377.458 344.021 378.91 336.587 378.907V437.174C351.728 437.176 366.721 434.217 380.711 428.466C394.7 422.715 407.411 414.285 418.118 403.656C428.826 393.028 437.319 380.409 443.114 366.522C448.909 352.634 451.891 337.749 451.891 322.717H393.202Z" fill="#F2F2F2"/>
<path d="M185.468 693.217C185.47 700.596 184.008 707.904 181.164 714.722C178.321 721.54 174.152 727.736 168.896 732.954C163.641 738.173 157.4 742.313 150.533 745.137C143.665 747.962 136.304 749.416 128.87 749.416V807.673C144.012 807.675 159.007 804.716 172.997 798.965C186.988 793.214 199.7 784.783 210.407 774.155C221.114 763.526 229.608 750.908 235.401 737.02C241.195 723.133 244.176 708.248 244.174 693.217H185.468Z" fill="#F2F2F2"/>
<path d="M472.239 749.416C457.225 749.411 442.827 743.488 432.211 732.949C421.596 722.411 415.633 708.119 415.633 693.217H356.935C356.933 708.247 359.913 723.13 365.707 737.016C371.501 750.902 379.993 763.52 390.701 774.149C401.408 784.777 414.12 793.208 428.11 798.96C442.101 804.713 457.096 807.673 472.239 807.673V749.416Z" fill="#F2F2F2"/>
<path d="M242.478 857.036C257.483 857.036 271.872 863.001 282.482 873.619C293.091 884.236 299.052 898.636 299.052 913.651H357.783C357.778 883.072 345.638 853.747 324.031 832.124C302.424 810.501 273.12 798.352 242.563 798.347V857.036H242.478Z" fill="#F2F2F2"/>
<path d="M702 54.6151C686.985 54.6151 672.585 48.6503 661.967 38.0329C651.35 27.4155 645.385 13.0152 645.385 -2L586.696 -2C586.7 28.5792 598.85 57.9047 620.473 79.5275C642.095 101.15 671.421 113.3 702 113.304V54.6151Z" fill="#F2F2F2"/>
<path d="M472.239 162.236C487.255 162.236 501.655 168.157 512.272 178.696C522.889 189.236 528.854 203.53 528.854 218.435H587.544C587.546 203.403 584.565 188.519 578.771 174.632C572.977 160.744 564.484 148.126 553.777 137.497C543.069 126.868 530.357 118.437 516.367 112.686C502.377 106.935 487.382 103.976 472.239 103.978V162.236Z" fill="#F2F2F2"/>
<path d="M260.283 544V602.5H455.283V544H260.283Z" fill="#F2F2F2"/>
<path d="M672.326 707.63H612.978V902.63H672.326V707.63Z" fill="#F2F2F2"/>
<path d="M572.283 805.13H512.935V902.63H572.283V805.13Z" fill="#F2F2F2"/>
<path d="M215.348 -2H156V109.065H215.348V-2Z" fill="#F2F2F2"/>
</g>
</svg>
